<svg xmlns="http://www.w3.org/2000/svg" viewBox="0 0 2172 724" width="2172" height="724" fill-rule="evenodd">
  <g id="dark-wordmark" fill="#040a21">
    <path d="M543.50 473.95C518.88 472.11 495.05 464.02 474.76 450.61C470.50 447.80 467.01 444.87 467.01 444.11C466.99 441.59 489.47 403.00 490.95 403.00C491.36 403.00 495.48 405.55 500.10 408.66C527.79 427.29 560.44 433.73 579.80 424.37C589.08 419.88 593.04 410.62 589.56 401.52C586.25 392.86 580.55 389.77 547.66 378.84C512.43 367.14 500.43 360.94 489.54 348.83C466.30 322.99 472.23 279.35 501.95 257.54C526.54 239.48 566.17 236.22 605.22 249.03C616.59 252.76 633.08 260.04 637.29 263.19C639.27 264.67 640.17 262.64 623.30 294.79L616.85 307.07L613.43 305.04C611.54 303.92 608.53 302.13 606.73 301.06C596.26 294.85 578.34 289.07 564.76 287.52C558.15 286.76 544.89 288.51 540.50 290.72C528.65 296.70 526.47 308.58 535.66 317.14C540.28 321.45 549.78 325.62 571.77 333.02C603.48 343.69 619.87 352.39 630.46 364.17C650.69 386.67 649.87 426.03 628.70 448.66C618.18 459.91 607.44 466.07 590.54 470.56C582.40 472.72 562.40 475.20 556.00 474.84C554.62 474.77 549.00 474.37 543.50 473.95ZM131.81 459.27C131.15 442.15 130.96 253.90 131.60 249.75L132.18 246.00L159.59 246.00L187.01 246.00L186.75 357.75L186.50 469.50L159.36 469.77L132.23 470.03L131.81 459.27ZM232.68 469.35C232.31 468.97 232.00 418.57 232.00 357.33L232.00 246.00L260.97 246.00L289.94 246.00L293.80 251.25C299.73 259.31 325.56 296.44 346.50 327.00C356.87 342.12 367.39 357.43 369.90 361.00C372.41 364.57 377.05 371.30 380.23 375.94L386.00 384.37L386.00 315.19L386.00 246.00L412.50 246.00L439.01 246.00L438.75 357.75L438.50 469.50L412.42 469.77L386.34 470.03L380.82 462.27C377.78 457.99 369.06 445.73 361.44 435.00C343.20 409.33 316.36 372.19 302.52 353.50C296.41 345.25 290.31 336.93 288.96 335.00L286.50 331.50L286.00 400.50L285.50 469.50L259.43 469.77C245.10 469.91 233.06 469.73 232.68 469.35ZM678.00 358.01L678.00 246.00L758.00 246.00L838.00 246.00L838.00 269.50L838.00 293.00L785.00 293.00L732.00 293.00L732.00 312.99L732.00 332.98L778.25 333.24L824.50 333.50L824.50 355.00L824.50 376.50L778.25 376.76L732.00 377.02L732.00 400.00L732.00 422.98L787.25 423.24L842.50 423.50L842.50 446.50L842.50 469.50L760.25 469.76L678.00 470.01L678.00 358.01ZM877.00 357.97L877.00 245.91L934.75 246.24C991.35 246.56 992.67 246.61 1001.00 248.87C1005.67 250.13 1013.55 253.13 1018.50 255.52C1044.70 268.20 1057.93 291.20 1056.74 322.00C1056.36 331.67 1055.81 334.79 1053.25 341.65C1049.57 351.53 1043.90 360.11 1036.89 366.41C1031.56 371.20 1019.36 379.00 1017.19 379.00C1016.54 379.00 1016.00 379.47 1016.00 380.04C1016.00 380.62 1020.36 388.60 1025.68 397.79C1031.00 406.98 1040.05 422.60 1045.79 432.50C1060.23 457.40 1066.00 467.83 1066.00 469.02C1066.00 469.68 1055.67 469.94 1035.75 469.76L1005.50 469.50L994.42 450.00C988.33 439.27 978.49 421.60 972.56 410.72L961.78 390.95L946.64 391.22L931.50 391.50L931.00 430.50L930.50 469.50L903.75 469.77L877.00 470.03L877.00 357.97ZM1136.68 469.35C1136.31 468.97 1136.00 429.19 1136.00 380.94C1136.00 311.41 1135.74 293.23 1134.75 293.27C1134.06 293.29 1119.66 293.24 1102.75 293.16L1072.00 293.00L1072.00 269.50L1072.00 246.00L1163.50 246.00L1255.00 246.00L1255.00 269.50L1255.00 293.00L1224.00 293.00C1206.95 293.00 1192.66 293.00 1192.25 293.00C1191.84 293.00 1191.28 332.71 1191.00 381.25L1190.50 469.50L1163.93 469.77C1149.32 469.91 1137.06 469.72 1136.68 469.35ZM1777.50 393.02C1762.65 388.21 1740.83 381.09 1729.00 377.20L1707.50 370.13L1706.94 363.31C1706.63 359.57 1706.79 355.95 1707.29 355.28C1708.03 354.28 1742.58 342.56 1748.00 341.46C1748.83 341.29 1749.61 341.06 1749.75 340.95C1749.89 340.84 1750.45 340.64 1751.00 340.50C1751.55 340.36 1752.22 340.14 1752.50 340.00C1752.78 339.86 1753.45 339.64 1754.00 339.50C1754.55 339.36 1755.22 339.14 1755.50 339.00C1755.78 338.86 1756.34 338.65 1756.75 338.54C1757.16 338.42 1758.17 338.05 1759.00 337.72C1761.84 336.56 1776.29 331.78 1777.89 331.47C1778.78 331.29 1779.61 331.06 1779.75 330.95C1779.89 330.84 1780.45 330.64 1781.00 330.50C1781.55 330.36 1782.22 330.14 1782.50 330.00C1782.78 329.86 1783.34 329.65 1783.75 329.54C1784.16 329.42 1785.17 329.03 1786.00 328.67C1786.83 328.30 1792.06 326.48 1797.62 324.61L1807.75 321.22L1808.87 324.97C1809.49 327.04 1810.00 328.98 1810.00 329.29C1810.00 329.60 1803.36 331.97 1795.25 334.56C1787.14 337.15 1779.83 339.51 1779.00 339.80C1778.17 340.09 1777.16 340.42 1776.75 340.54C1776.34 340.65 1775.78 340.86 1775.50 341.00C1775.22 341.14 1774.55 341.36 1774.00 341.50C1773.45 341.64 1772.89 341.84 1772.75 341.95C1772.61 342.06 1771.68 342.31 1770.67 342.50C1769.67 342.69 1768.09 343.18 1767.17 343.59C1766.25 343.99 1765.16 344.42 1764.75 344.54C1764.34 344.65 1763.78 344.86 1763.50 345.00C1763.22 345.14 1762.55 345.36 1762.00 345.50C1761.45 345.64 1760.89 345.84 1760.75 345.95C1760.61 346.06 1759.41 346.35 1758.08 346.59C1756.75 346.84 1755.06 347.54 1754.33 348.14C1753.60 348.75 1753.00 348.91 1753.00 348.50C1753.00 348.09 1752.33 348.32 1751.50 349.00C1750.67 349.68 1750.00 349.91 1750.00 349.50C1750.00 349.09 1749.33 349.32 1748.50 350.00C1747.67 350.68 1747.00 350.91 1747.00 350.50C1747.00 350.09 1746.33 350.32 1745.50 351.00C1744.67 351.68 1744.00 351.91 1744.00 351.50C1744.00 351.09 1743.40 351.25 1742.67 351.86C1741.94 352.46 1740.25 353.16 1738.92 353.41C1737.59 353.65 1736.50 353.92 1736.50 354.00C1736.50 354.09 1735.83 354.29 1735.00 354.46C1732.30 355.02 1714.52 361.29 1713.74 361.97C1713.11 362.51 1779.53 384.55 1802.00 391.25C1805.58 392.32 1808.83 393.50 1809.23 393.87C1810.51 395.07 1807.79 402.01 1806.08 401.89C1805.21 401.82 1792.35 397.83 1777.50 393.02ZM1905.05 399.63C1902.85 393.85 1902.31 394.22 1922.00 387.90C1932.17 384.64 1941.17 381.85 1942.00 381.71C1942.83 381.56 1943.99 381.14 1944.58 380.76C1945.18 380.39 1947.19 379.82 1949.04 379.49C1950.90 379.17 1953.00 378.42 1953.71 377.83C1954.42 377.24 1955.00 377.09 1955.00 377.50C1955.00 377.91 1955.67 377.68 1956.50 377.00C1957.33 376.32 1958.00 376.09 1958.00 376.50C1958.00 376.91 1958.67 376.68 1959.50 376.00C1960.33 375.32 1961.00 375.09 1961.00 375.50C1961.00 375.91 1961.67 375.68 1962.50 375.00C1963.33 374.32 1964.00 374.01 1964.00 374.32C1964.00 374.92 1972.52 372.57 1976.92 370.76C1978.34 370.17 1980.19 369.56 1981.04 369.39C1981.88 369.22 1985.03 368.00 1988.04 366.69C1991.04 365.37 1994.80 363.98 1996.39 363.59C1997.99 363.21 1998.89 362.52 1998.39 362.07C1997.90 361.62 1976.24 354.18 1950.25 345.54C1924.26 336.90 1903.00 329.48 1903.00 329.04C1903.00 328.60 1903.67 326.65 1904.48 324.70L1905.96 321.16L1951.23 336.51C1976.13 344.95 1998.30 352.49 2000.50 353.28C2003.53 354.36 2004.48 355.22 2004.43 356.85C2004.39 358.03 2004.28 361.77 2004.18 365.17C2004.08 368.56 2003.70 371.04 2003.34 370.68C2002.98 370.31 2002.19 370.41 2001.59 370.89C2000.99 371.37 1997.80 372.51 1994.50 373.43C1991.20 374.34 1987.83 375.37 1987.00 375.71C1986.17 376.05 1985.16 376.42 1984.75 376.54C1984.34 376.65 1983.89 376.84 1983.75 376.95C1983.61 377.06 1982.55 377.33 1981.39 377.55C1980.22 377.77 1977.97 378.48 1976.39 379.14C1974.80 379.80 1973.16 380.43 1972.75 380.54C1972.34 380.66 1971.66 380.86 1971.25 380.99C1970.84 381.13 1970.20 381.20 1969.83 381.14C1969.18 381.06 1959.03 384.37 1956.00 385.66C1955.17 386.01 1953.64 386.47 1952.58 386.67C1951.52 386.87 1950.06 387.54 1949.33 388.14C1948.60 388.75 1948.00 388.91 1948.00 388.50C1948.00 388.09 1947.44 388.21 1946.75 388.76C1945.67 389.63 1936.41 392.62 1932.00 393.54C1931.17 393.71 1930.39 393.94 1930.25 394.05C1930.11 394.16 1929.66 394.31 1929.25 394.39C1928.84 394.47 1928.05 394.81 1927.50 395.15C1926.48 395.79 1907.39 402.00 1906.46 402.00C1906.18 402.00 1905.54 400.93 1905.05 399.63ZM980.08 346.98C993.17 343.13 1000.34 333.27 1000.43 318.99C1000.51 304.95 994.10 296.55 980.00 292.24C975.59 290.88 970.25 290.55 953.00 290.53L931.50 290.50L931.23 319.69L930.97 348.88L934.73 349.19C936.81 349.36 946.38 349.37 956.00 349.21C969.72 348.98 974.92 348.49 980.08 346.98Z"/>
  </g>
  <g id="cyan-ai-icon" fill="#1ed6ff">
    <path d="M1846.75 532.57C1839.12 529.85 1832.29 522.91 1829.52 515.06C1825.13 502.61 1831.33 487.60 1843.92 480.19C1847.93 477.84 1849.56 477.50 1857.00 477.51C1863.40 477.52 1866.37 477.98 1869.00 479.40C1876.13 483.22 1879.94 487.09 1883.10 493.72C1885.94 499.66 1886.20 500.98 1885.78 507.40C1885.49 511.88 1884.54 516.02 1883.20 518.63C1880.41 524.07 1873.03 530.46 1867.27 532.42C1861.67 534.33 1851.87 534.40 1846.75 532.57ZM1770.00 484.78C1743.88 475.93 1722.36 468.57 1722.18 468.44C1721.59 467.99 1724.31 460.00 1725.06 460.00C1725.94 460.00 1753.45 469.34 1788.50 481.53C1802.25 486.31 1815.64 490.88 1818.25 491.69C1820.91 492.51 1823.00 493.76 1823.00 494.53C1823.00 497.17 1820.67 501.00 1819.09 500.94C1818.22 500.91 1796.12 493.64 1770.00 484.78ZM1891.61 498.59C1891.28 497.27 1890.75 495.52 1890.44 494.71C1890.02 493.62 1891.50 492.72 1896.19 491.22C1904.60 488.54 1931.95 479.11 1961.87 468.58C1975.27 463.86 1986.56 460.00 1986.96 460.00C1987.70 460.00 1990.40 467.98 1989.82 468.46C1989.64 468.60 1985.45 470.09 1980.50 471.76C1975.55 473.44 1956.20 480.08 1937.50 486.51C1888.94 503.23 1892.54 502.28 1891.61 498.59ZM1668.71 483.28C1666.08 482.40 1661.95 479.95 1659.55 477.83C1644.10 464.24 1647.80 439.60 1666.68 430.37C1685.02 421.40 1707.15 435.33 1707.41 456.00C1707.51 464.39 1705.18 470.15 1699.21 476.26C1691.30 484.35 1679.84 486.99 1668.71 483.28ZM2024.99 484.07C2008.81 479.14 2000.12 462.29 2005.72 446.66C2010.42 433.55 2024.58 425.36 2037.90 428.05C2051.81 430.86 2060.77 441.06 2061.78 455.26C2062.22 461.35 2061.96 462.64 2059.10 468.45C2055.51 475.74 2050.59 480.21 2042.96 483.11C2037.91 485.03 2029.61 485.47 2024.99 484.07ZM1246.68 469.25C1246.44 468.84 1249.94 459.50 1254.46 448.50C1258.98 437.50 1268.88 413.43 1276.45 395.00C1312.20 308.07 1325.20 276.29 1330.98 261.75L1337.23 246.00L1362.87 246.02L1388.50 246.04L1409.71 298.77C1445.77 388.43 1477.00 467.28 1477.00 468.67C1477.00 469.75 1471.57 470.00 1448.59 470.00L1420.18 470.00L1417.02 461.75C1415.28 457.21 1411.98 448.22 1409.68 441.77L1405.50 430.03L1361.34 430.02L1317.19 430.00L1314.00 438.75C1312.25 443.56 1309.21 452.00 1307.25 457.50C1305.29 463.00 1303.25 468.06 1302.72 468.75C1301.99 469.70 1295.11 470.00 1274.44 470.00C1259.41 470.00 1246.92 469.66 1246.68 469.25ZM1501.98 465.77C1501.96 463.42 1501.96 413.12 1501.97 354.00L1501.98 246.50L1529.50 246.23L1557.01 245.97L1556.75 357.73L1556.50 469.50L1529.25 469.77L1502.00 470.03L1501.98 465.77ZM1723.11 444.43C1722.40 442.46 1722.07 440.60 1722.37 440.29C1722.87 439.80 1733.51 435.99 1791.92 415.44C1800.41 412.45 1807.43 410.12 1807.52 410.26C1807.62 410.39 1808.18 412.44 1808.76 414.81C1809.74 418.80 1809.66 419.18 1807.66 419.90C1806.47 420.32 1793.35 424.85 1778.50 429.96C1763.65 435.07 1745.86 441.22 1738.97 443.63C1732.08 446.03 1725.98 448.00 1725.42 448.00C1724.86 448.00 1723.82 446.39 1723.11 444.43ZM1977.50 445.02C1973.10 443.45 1955.55 437.36 1938.50 431.51C1921.45 425.65 1906.51 420.45 1905.30 419.97C1903.15 419.11 1903.13 418.97 1904.62 414.61L1906.14 410.14L1910.32 411.65C1921.31 415.62 1953.45 426.82 1970.50 432.62C1980.95 436.17 1990.04 439.26 1990.70 439.49C1992.42 440.08 1988.95 447.99 1987.00 447.93C1986.17 447.91 1981.90 446.60 1977.50 445.02ZM1848.35 434.57C1823.03 426.65 1821.43 391.66 1845.88 380.70C1853.24 377.40 1862.13 377.80 1870.25 381.80C1880.51 386.85 1885.95 395.57 1885.97 407.00C1886.00 426.14 1866.68 440.30 1848.35 434.57ZM1671.00 391.12C1657.59 386.71 1650.04 376.77 1650.04 363.50C1650.04 355.18 1652.32 349.36 1657.80 343.66C1671.44 329.50 1693.50 331.92 1703.56 348.68C1706.26 353.17 1706.65 354.80 1706.86 362.31C1707.13 372.24 1705.96 375.83 1700.41 381.97C1695.06 387.88 1688.01 391.22 1680.00 391.62C1676.42 391.80 1672.38 391.58 1671.00 391.12ZM2022.39 390.38C2016.96 388.46 2010.64 382.94 2007.24 377.17C2004.78 372.98 2004.50 371.56 2004.55 363.43C2004.59 355.50 2004.92 353.82 2007.21 349.93C2017.26 332.92 2038.35 329.38 2052.66 342.31C2061.51 350.30 2064.49 363.87 2059.71 374.33C2053.25 388.42 2036.81 395.50 2022.39 390.38ZM1389.00 385.23C1389.00 384.81 1384.46 372.10 1378.91 356.98C1373.36 341.87 1367.24 325.00 1365.31 319.50C1363.39 314.00 1361.69 309.38 1361.55 309.23C1361.26 308.93 1358.43 316.49 1348.32 344.50C1344.74 354.40 1340.32 366.55 1338.49 371.50C1336.66 376.45 1334.85 381.74 1334.47 383.25L1333.78 386.00L1361.39 386.00C1376.58 386.00 1389.00 385.65 1389.00 385.23ZM1850.50 344.05C1841.43 341.78 1834.40 336.11 1830.63 328.00C1827.72 321.74 1827.73 310.27 1830.64 303.91C1833.18 298.38 1838.54 292.82 1844.28 289.77C1850.24 286.60 1863.67 286.55 1869.50 289.66C1875.32 292.78 1880.92 298.74 1883.74 304.82C1887.07 312.00 1886.72 322.11 1882.88 329.50C1877.11 340.61 1862.69 347.09 1850.50 344.05ZM1771.50 301.96C1752.80 295.48 1732.45 288.42 1726.28 286.28C1720.10 284.14 1714.79 282.12 1714.47 281.80C1713.60 280.93 1716.72 274.00 1717.99 274.00C1718.59 274.00 1724.35 275.84 1730.79 278.09C1737.23 280.34 1750.83 285.03 1761.00 288.51C1798.78 301.45 1806.27 304.07 1807.99 304.99C1809.51 305.81 1809.60 306.47 1808.66 309.97C1808.07 312.18 1807.12 313.94 1806.54 313.88C1805.97 313.81 1790.20 308.45 1771.50 301.96ZM1905.50 311.75C1905.27 311.06 1904.94 309.15 1904.79 307.50L1904.50 304.50L1921.50 298.83C1930.85 295.71 1949.64 289.31 1963.25 284.61L1988.00 276.06L1989.52 279.71C1990.36 281.72 1990.90 283.80 1990.72 284.35C1990.54 284.89 1983.21 287.69 1974.44 290.56C1965.67 293.44 1947.11 299.66 1933.18 304.39C1919.25 309.13 1907.43 313.00 1906.90 313.00C1906.37 313.00 1905.74 312.44 1905.50 311.75ZM2023.26 297.20C2020.93 296.26 2017.06 294.09 2014.65 292.37C2009.17 288.44 2004.00 278.75 2004.00 272.41C2004.00 267.85 2002.85 266.89 1996.90 266.51C1994.18 266.33 1892.12 231.20 1890.65 229.93C1889.48 228.92 1892.11 222.00 1893.67 222.00C1895.21 222.00 1916.78 229.41 1979.40 251.44C1989.80 255.10 1999.42 258.97 2000.79 260.05C2002.15 261.12 2003.55 262.00 2003.88 262.00C2004.22 262.00 2005.81 259.49 2007.41 256.42C2016.10 239.79 2037.92 236.03 2052.06 248.74C2058.97 254.96 2061.98 261.40 2061.98 270.00C2061.98 289.55 2040.99 304.29 2023.26 297.20ZM1669.95 296.84C1664.76 295.46 1657.01 289.19 1653.53 283.56C1650.97 279.42 1650.44 277.44 1650.14 270.81C1649.83 263.89 1650.11 262.30 1652.49 257.43C1657.91 246.36 1666.85 240.57 1678.54 240.56C1687.90 240.55 1695.47 244.12 1701.04 251.17C1711.03 263.81 1710.01 279.31 1698.48 289.84C1690.36 297.26 1680.54 299.67 1669.95 296.84ZM1716.20 262.31C1715.57 260.24 1715.38 258.25 1715.77 257.87C1716.17 257.50 1723.03 254.94 1731.00 252.17C1756.47 243.35 1807.32 225.28 1812.79 223.10C1815.69 221.95 1818.27 221.00 1818.52 221.00C1818.76 221.00 1819.88 222.81 1821.01 225.01L1823.06 229.03L1820.28 230.10C1812.46 233.13 1755.99 253.00 1739.00 258.71C1728.28 262.31 1719.02 265.44 1718.43 265.67C1717.84 265.89 1716.84 264.38 1716.20 262.31ZM1847.70 241.62C1827.23 233.99 1821.43 208.63 1836.67 193.40C1842.25 187.81 1848.13 185.55 1857.07 185.52C1863.55 185.50 1865.50 185.94 1870.54 188.52C1888.35 197.62 1891.52 221.12 1876.77 234.67C1874.27 236.96 1870.71 239.62 1868.86 240.58C1864.39 242.90 1852.68 243.48 1847.70 241.62Z"/>
  </g>
</svg>
